HIERARCHY
ROOT Hips
{
	OFFSET 0.00000 0.00000 0.00000
	CHANNELS 6 Xposition Yposition Zposition Zrotation Yrotation Xrotation 
	JOINT LHipJoint
	{
		OFFSET 0 0 0
		CHANNELS 3 Zrotation Yrotation Xrotation
		JOINT LeftUpLeg
		{
			OFFSET 1.52977 -1.71332 0.88991
			CHANNELS 3 Zrotation Yrotation Xrotation
			JOINT LeftLeg
			{
				OFFSET 2.23949 -6.15296 0.00000
				CHANNELS 3 Zrotation Yrotation Xrotation
				JOINT LeftFoot
				{
					OFFSET 2.68396 -7.37412 0.00000
					CHANNELS 3 Zrotation Yrotation Xrotation
					JOINT LeftToeBase
					{
						OFFSET 0.20538 -0.56428 2.52710
						CHANNELS 3 Zrotation Yrotation Xrotation
						End Site
						{
							OFFSET 0.00000 -0.00000 1.29919
						}
					}
				}
			}
		}
	}
	JOINT RHipJoint
	{
		OFFSET 0 0 0
		CHANNELS 3 Zrotation Yrotation Xrotation
		JOINT RightUpLeg
		{
			OFFSET -1.45689 -1.71333 0.88991
			CHANNELS 3 Zrotation Yrotation Xrotation
			JOINT RightLeg
			{
				OFFSET -2.36700 -6.50329 0.00000
				CHANNELS 3 Zrotation Yrotation Xrotation
				JOINT RightFoot
				{
					OFFSET -2.69814 -7.41308 0.00000
					CHANNELS 3 Zrotation Yrotation Xrotation
					JOINT RightToeBase
					{
						OFFSET -0.18734 -0.51471 2.37479
						CHANNELS 3 Zrotation Yrotation Xrotation
						End Site
						{
							OFFSET -0.00000 -0.00000 1.22113
						}
					}
				}
			}
		}
	}
	JOINT LowerBack
	{
		OFFSET 0 0 0
		CHANNELS 3 Zrotation Yrotation Xrotation
		JOINT Spine
		{
			OFFSET 0.04294 2.14638 -0.31163
			CHANNELS 3 Zrotation Yrotation Xrotation
			JOINT Spine1
			{
				OFFSET -0.00400 2.17216 0.01486
				CHANNELS 3 Zrotation Yrotation Xrotation
				JOINT Neck
				{
					OFFSET 0 0 0
					CHANNELS 3 Zrotation Yrotation Xrotation
					JOINT Neck1
					{
						OFFSET 0.03869 1.76598 0.14916
						CHANNELS 3 Zrotation Yrotation Xrotation
						JOINT Head
						{
							OFFSET -0.00760 1.75513 -0.18948
							CHANNELS 3 Zrotation Yrotation Xrotation
							End Site
							{
								OFFSET -0.00601 1.82444 -0.08310
							}
						}
					}
				}
				JOINT LeftShoulder
				{
					OFFSET 0 0 0
					CHANNELS 3 Zrotation Yrotation Xrotation
					JOINT LeftArm
					{
						OFFSET 3.73696 0.92058 0.01733
						CHANNELS 3 Zrotation Yrotation Xrotation
						JOINT LeftForeArm
						{
							OFFSET 5.22771 -0.00000 0.00000
							CHANNELS 3 Zrotation Yrotation Xrotation
							JOINT LeftHand
							{
								OFFSET 3.45251 -0.00000 0.00000
								CHANNELS 3 Zrotation Yrotation Xrotation
								JOINT LeftFingerBase
								{
									OFFSET 0 0 0
									CHANNELS 3 Zrotation Yrotation Xrotation
									JOINT LeftHandIndex1
									{
										OFFSET 0.55212 -0.00000 0.00000
										CHANNELS 3 Zrotation Yrotation Xrotation
										End Site
										{
											OFFSET 0.44513 -0.00000 0.00000
										}
									}
								}
								JOINT LThumb
								{
									OFFSET 0 0 0
									CHANNELS 3 Zrotation Yrotation Xrotation
									End Site
									{
										OFFSET 0.45193 -0.00000 0.45193
									}
								}
							}
						}
					}
				}
				JOINT RightShoulder
				{
					OFFSET 0 0 0
					CHANNELS 3 Zrotation Yrotation Xrotation
					JOINT RightArm
					{
						OFFSET -3.63819 0.83094 -0.13694
						CHANNELS 3 Zrotation Yrotation Xrotation
						JOINT RightForeArm
						{
							OFFSET -5.23980 -0.00000 -0.00000
							CHANNELS 3 Zrotation Yrotation Xrotation
							JOINT RightHand
							{
								OFFSET -3.48042 -0.00000 -0.00000
								CHANNELS 3 Zrotation Yrotation Xrotation
								JOINT RightFingerBase
								{
									OFFSET 0 0 0
									CHANNELS 3 Zrotation Yrotation Xrotation
									JOINT RightHandIndex1
									{
										OFFSET -0.61871 -0.00000 0.00000
										CHANNELS 3 Zrotation Yrotation Xrotation
										End Site
										{
											OFFSET -0.49882 -0.00000 0.00000
										}
									}
								}
								JOINT RThumb
								{
									OFFSET 0 0 0
									CHANNELS 3 Zrotation Yrotation Xrotation
									End Site
									{
										OFFSET -0.50644 -0.00000 0.50644
									}
								}
							}
						}
					}
				}
			}
		}
	}
}
MOTION
Frames: 14
Frame Time: .0083333
48.2554 16.7086 -4.4743 0 0 0 0 0 0 -21 0 0 0 0 0 0 0 0 0 0 0 0 0 0 21 0 0 0 0 0 0 0 0 0 0 0 0 0 0 0 0 0 0 0 0 0 0 -16 0 0 21 0 0 11 0 0 0 -8 0 0 0 0 0 0 0 0 0 0 0 0 0 0 0 0 0 0 0 0 8 0 0 0 0 0 0 0 0 0 0 0 0 0 0 0 0 0
48.2554 16.7086 -4.4743 -138.4450 -86.9258 138.2250 0.0000 0.0000 0.0000 -13.2387 6.2741 -1.9611 1.0480 6.5100 18.2715 0.0843 6.4140 -11.0585 1.1049 -6.6788 -18.7671 0.0000 0.0000 0.0000 22.1438 6.8431 -6.1261 -3.3550 -11.2487 33.1234 -0.6928 -10.2207 -22.5707 -0.3370 3.7307 -10.3203 2.1511 -0.8750 -3.7036 0.4116 -1.3119 2.0678 -0.8763 -0.6013 4.1724 -1.4389 -3.3435 -4.2250 4.5862 -4.4407 -1.6908 1.5886 -2.2088 0.3281 0.0000 -0.0000 0.0000 -87.4177 1.7894 23.4205 14.6590 -23.6689 -3.0877 -0.0000 0.0000 -16.1515 19.2014 13.9975 4.8151 -7.1250 0.0000 -0.0000 -7.6324 44.6307 0.0700 0.0000 -0.0000 0.0000 90.5963 1.7380 18.0369 -13.4140 21.8908 -2.6056 0.0000 0.0000 3.0743 -19.6534 -7.4485 2.6507 7.1250 -0.0000 -0.0000 6.1207 -37.8190 1.0869
48.2778 16.6709 -4.4711 -140.8150 -86.9955 140.6780 0.0000 0.0000 0.0000 -13.4655 6.1527 -1.9071 1.0249 6.4401 18.0667 0.1306 6.3074 -11.8287 1.0023 -6.3708 -17.8641 0.0000 0.0000 0.0000 22.0100 7.0724 -6.2929 -3.4001 -11.3162 33.3540 -0.7957 -9.9551 -23.2441 -0.2971 3.5047 -9.6872 2.0169 -0.8747 -3.6487 0.3737 -1.3005 2.0540 -0.8382 -0.5993 4.1291 -1.3977 -3.3614 -4.2327 4.5441 -4.4655 -1.7205 1.5677 -2.2220 0.3186 0.0000 -0.0000 0.0000 -87.4327 1.6488 23.3524 14.5977 -23.5827 -3.0632 -0.0000 0.0000 -16.0546 19.1999 13.8831 4.7763 -7.1250 0.0000 -0.0000 -7.6088 44.5117 0.0923 0.0000 -0.0000 0.0000 90.5819 1.8067 18.1243 -13.4280 21.9110 -2.6108 0.0000 0.0000 3.0703 -19.5995 -7.3178 2.5968 7.1250 -0.0000 -0.0000 6.1498 -37.6779 1.1135
48.3011 16.6334 -4.4675 -141.1660 -87.0333 141.0970 0.0000 0.0000 0.0000 -13.5788 5.9801 -1.9064 1.0139 6.4066 17.9688 0.1711 6.2809 -12.5208 0.9206 -6.1129 -17.1123 0.0000 0.0000 0.0000 21.9775 7.2124 -6.4455 -3.4333 -11.3655 33.5228 -0.8803 -9.7923 -23.8278 -0.2690 3.3366 -9.2173 2.0060 -0.8725 -3.5957 0.3490 -1.2947 2.0546 -0.8562 -0.5966 4.0994 -1.4437 -3.3564 -4.2318 4.6475 -4.4559 -1.8104 1.6096 -2.2184 0.2944 0.0000 -0.0000 0.0000 -87.3847 1.6302 23.5245 14.6697 -23.6839 -3.0920 -0.0000 0.0000 -16.1692 19.1799 13.8817 4.7705 -7.1250 0.0000 -0.0000 -7.6267 44.5078 0.0932 0.0000 -0.0000 0.0000 90.5791 1.8917 18.2159 -13.4393 21.9275 -2.6151 0.0000 0.0000 2.9844 -19.5405 -7.3117 2.5862 7.1250 -0.0000 -0.0000 6.1990 -37.6676 1.1241
48.3257 16.6034 -4.4638 -142.8120 -87.0969 142.7910 0.0000 0.0000 0.0000 -13.7811 5.8299 -1.9188 1.0036 6.3748 17.8760 0.2013 6.3567 -13.1028 0.8441 -5.8603 -16.3795 0.0000 0.0000 0.0000 21.8645 7.3671 -6.5855 -3.4644 -11.4114 33.6803 -0.9785 -9.5254 -24.4197 -0.2237 3.0447 -8.4032 1.9028 -0.8843 -3.5297 0.3292 -1.3030 2.0800 -0.8185 -0.6034 4.0898 -1.4471 -3.3729 -4.2463 4.6577 -4.4762 -1.8856 1.6134 -2.2296 0.2744 -0.0000 0.0000 0.0000 -87.4237 1.4866 23.5017 14.6879 -23.7095 -3.0993 -0.0000 0.0000 -16.2036 19.0631 14.0453 4.7938 -7.1250 0.0000 -0.0000 -7.7689 44.6640 0.0648 -0.0000 0.0000 0.0000 90.5364 1.9593 18.4035 -13.5162 22.0389 -2.6438 0.0000 0.0000 2.8908 -19.4387 -7.3410 2.5819 7.1250 -0.0000 -0.0000 6.2891 -37.6917 1.1368
48.3502 16.5716 -4.4600 -143.8830 -87.1527 143.9000 0.0000 0.0000 0.0000 -13.9376 5.7001 -1.9565 0.9992 6.3612 17.8360 0.2393 6.3528 -13.7008 0.7717 -5.6091 -15.6542 0.0000 0.0000 0.0000 21.7821 7.4726 -6.7070 -3.4878 -11.4457 33.7982 -1.0682 -9.3068 -24.9663 -0.1896 2.8040 -7.7336 1.8361 -0.8962 -3.4594 0.3099 -1.3136 2.1059 -0.8007 -0.6103 4.0775 -1.4512 -3.3812 -4.2486 4.6839 -4.4854 -1.9759 1.6231 -2.2358 0.2479 -0.0000 -0.0000 0.0000 -87.4340 1.3824 23.5555 14.7278 -23.7656 -3.1154 -0.0000 0.0000 -16.2819 18.9825 14.1037 4.7914 -7.1250 0.0000 -0.0000 -7.8553 44.7150 0.0556 -0.0000 -0.0000 0.0000 90.5064 2.0352 18.5829 -13.5741 22.1226 -2.6656 0.0000 0.0000 2.7703 -19.3947 -7.3294 2.5716 7.1250 -0.0000 -0.0000 6.3248 -37.6767 1.1457
48.3748 16.5422 -4.4559 -144.7740 -87.2190 144.8060 0.0000 0.0000 0.0000 -14.0836 5.5976 -2.0078 0.9990 6.3605 17.8341 0.2776 6.3215 -14.2464 0.7006 -5.3503 -14.9104 0.0000 0.0000 0.0000 21.6972 7.5174 -6.8044 -3.5035 -11.4686 33.8771 -1.1539 -9.0928 -25.4712 -0.1580 2.5615 -7.0601 1.7713 -0.9132 -3.3805 0.2913 -1.3314 2.1461 -0.7838 -0.6207 4.0749 -1.4597 -3.3886 -4.2470 4.7181 -4.4931 -2.0745 1.6363 -2.2414 0.2185 0.0000 -0.0000 0.0000 -87.4446 1.2806 23.6356 14.7830 -23.8430 -3.1377 -0.0000 0.0000 -16.3931 18.8999 14.1538 4.7856 -7.1250 0.0000 -0.0000 -7.9418 44.7572 0.0479 0.0000 -0.0000 0.0000 90.4745 2.1064 18.7877 -13.6453 22.2253 -2.6925 0.0000 0.0000 2.6219 -19.3777 -7.3228 2.5668 7.1250 -0.0000 -0.0000 6.3384 -37.6686 1.1494
48.3994 16.5152 -4.4517 -145.4520 -87.2966 145.4770 0.0000 0.0000 0.0000 -14.2149 5.5353 -2.0731 1.0015 6.3684 17.8571 0.3157 6.2526 -14.7290 0.6362 -5.1032 -14.2032 0.0000 0.0000 0.0000 21.6142 7.5025 -6.8770 -3.5112 -11.4799 33.9159 -1.2354 -8.8873 -25.9394 -0.1291 2.3158 -6.3794 1.7074 -0.9348 -3.2936 0.2737 -1.3556 2.1963 -0.7666 -0.6342 4.0781 -1.4681 -3.3993 -4.2383 4.7519 -4.5051 -2.1712 1.6494 -2.2491 0.1885 0.0000 -0.0000 0.0000 -87.4567 1.1823 23.7336 14.8462 -23.9314 -3.1633 -0.0000 0.0000 -16.5159 18.8265 14.1820 4.7750 -7.1250 0.0000 -0.0000 -8.0150 44.7776 0.0443 0.0000 -0.0000 0.0000 90.4428 2.1681 19.0034 -13.7261 22.3418 -2.7231 0.0000 0.0000 2.4672 -19.3983 -7.3189 2.5684 7.1250 -0.0000 -0.0000 6.3205 -37.6659 1.1465
48.4243 16.4907 -4.4479 -145.5340 -87.3741 145.5380 0.0000 0.0000 0.0000 -14.3047 5.4958 -2.1475 1.0062 6.3829 17.8995 0.3548 6.1341 -15.1638 0.5724 -4.8453 -13.4679 0.0000 0.0000 0.0000 21.5638 7.4441 -6.9259 -3.5107 -11.4792 33.9136 -1.3100 -8.7204 -26.3748 -0.1040 2.0798 -5.7264 1.6621 -0.9591 -3.1986 0.2624 -1.3848 2.2501 -0.7536 -0.6499 4.0801 -1.4884 -3.4116 -4.2221 4.8012 -4.5191 -2.2549 1.6695 -2.2576 0.1621 0.0000 0.0000 0.0000 -87.4642 1.0998 23.8576 14.9196 -24.0340 -3.1931 -0.0000 0.0000 -16.6467 18.7699 14.1795 4.7588 -7.1250 0.0000 -0.0000 -8.0661 44.7683 0.0464 0.0000 0.0000 0.0000 90.4153 2.2194 19.2152 -13.8068 22.4579 -2.7539 0.0000 0.0000 2.3123 -19.4535 -7.2923 2.5670 7.1250 -0.0000 -0.0000 6.2703 -37.6415 1.1411
48.4495 16.4687 -4.4448 -144.8500 -87.4470 144.8230 0.0000 0.0000 0.0000 -14.3465 5.4628 -2.2219 1.0115 6.3990 17.9465 0.3946 5.9782 -15.5601 0.5105 -4.5798 -12.7138 0.0000 0.0000 0.0000 21.5581 7.3612 -6.9557 -3.5040 -11.4694 33.8797 -1.3808 -8.5886 -26.7998 -0.0810 1.8362 -5.0532 1.6401 -0.9855 -3.0956 0.2588 -1.4182 2.3021 -0.7457 -0.6672 4.0753 -1.5012 -3.4279 -4.1898 4.8441 -4.5387 -2.3315 1.6865 -2.2690 0.1351 0.0000 0.0000 0.0000 -87.4662 1.0353 23.9996 14.9987 -24.1443 -3.2254 -0.0000 0.0000 -16.7707 18.7340 14.1490 4.7391 -7.1250 0.0000 -0.0000 -8.0920 44.7325 0.0538 0.0000 0.0000 0.0000 90.3960 2.2589 19.4045 -13.8861 22.5716 -2.7842 0.0000 0.0000 2.1898 -19.5153 -7.2774 2.5706 7.1250 -0.0000 -0.0000 6.2161 -37.6298 1.1329
48.4748 16.4488 -4.4424 -143.4850 -87.5114 143.4260 0.0000 0.0000 0.0000 -14.3496 5.4163 -2.2906 1.0161 6.4132 17.9880 0.4343 5.8124 -15.9342 0.4524 -4.3151 -11.9648 0.0000 0.0000 0.0000 21.5938 7.2741 -6.9760 -3.4933 -11.4537 33.8257 -1.4465 -8.5029 -27.2124 -0.0613 1.5973 -4.3941 1.6392 -1.0122 -2.9905 0.2609 -1.4531 2.3490 -0.7436 -0.6849 4.0636 -1.5149 -3.4447 -4.1499 4.8923 -4.5593 -2.3911 1.7052 -2.2807 0.1123 0.0000 0.0000 0.0000 -87.4597 0.9879 24.1518 15.0823 -24.2606 -3.2597 -0.0000 0.0000 -16.8792 18.7128 14.1114 4.7211 -7.1250 0.0000 -0.0000 -8.1028 44.6911 0.0622 0.0000 0.0000 0.0000 90.3879 2.2860 19.5652 -13.9599 22.6774 -2.8126 0.0000 0.0000 2.0945 -19.5741 -7.2445 2.5674 7.1250 -0.0000 -0.0000 6.1621 -37.5991 1.1277
48.5002 16.4305 -4.4406 -141.5340 -87.5650 141.4460 0.0000 0.0000 0.0000 -14.3244 5.3449 -2.3427 1.0183 6.4200 18.0081 0.4730 5.6626 -16.2977 0.3998 -4.0598 -11.2451 0.0000 0.0000 0.0000 21.6630 7.1942 -6.9985 -3.4819 -11.4371 33.7685 -1.5092 -8.4494 -27.6191 -0.0444 1.3596 -3.7388 1.6560 -1.0392 -2.8874 0.2688 -1.4895 2.3885 -0.7454 -0.7030 4.0451 -1.5250 -3.4618 -4.1077 4.9362 -4.5809 -2.4281 1.7218 -2.2925 0.0959 0.0000 -0.0000 0.0000 -87.4477 0.9578 24.3102 15.1709 -24.3836 -3.2962 -0.0000 0.0000 -16.9715 18.7017 14.0809 4.7081 -7.1250 0.0000 -0.0000 -8.1061 44.6583 0.0688 0.0000 -0.0000 0.0000 90.3865 2.3024 19.7021 -14.0263 22.7723 -2.8383 0.0000 0.0000 2.0207 -19.6220 -7.2027 2.5594 7.1250 -0.0000 -0.0000 6.1162 -37.5582 1.1254
48.5255 16.4131 -4.4391 -138.9560 -87.5892 138.8450 0.0000 0.0000 0.0000 -14.2637 5.2565 -2.3751 1.0171 6.4162 17.9968 0.5097 5.5494 -16.6559 0.3539 -3.8219 -10.5761 0.0000 0.0000 0.0000 21.7726 7.1334 -7.0311 -3.4727 -11.4235 33.7218 -1.5685 -8.4161 -28.0089 -0.0306 1.1287 -3.1030 1.7067 -1.0639 -2.7924 0.2866 -1.5249 2.4249 -0.7560 -0.7198 4.0275 -1.5253 -3.4833 -4.0817 4.9609 -4.6096 -2.4281 1.7297 -2.3071 0.0932 0.0000 -0.0000 0.0000 -87.4331 0.9361 24.4626 15.2635 -24.5119 -3.3345 -0.0000 0.0000 -17.0424 18.6758 14.0570 4.6933 -7.1250 0.0000 -0.0000 -8.1243 44.6304 0.0746 0.0000 -0.0000 0.0000 90.3883 2.3149 19.8178 -14.0892 22.8621 -2.8627 0.0000 0.0000 1.9673 -19.6355 -7.1724 2.5506 7.1250 -0.0000 -0.0000 6.1010 -37.5272 1.1272
48.5499 16.3960 -4.4369 -136.4750 -87.6048 136.3470 0.0000 0.0000 0.0000 -14.2179 5.1539 -2.3847 1.0124 6.4017 17.9545 0.5431 5.4989 -17.0132 0.3168 -3.6179 -10.0040 0.0000 0.0000 0.0000 21.8685 7.0731 -7.0815 -3.4672 -11.4155 33.6943 -1.6240 -8.3752 -28.3616 -0.0200 0.9133 -2.5103 1.7641 -1.0858 -2.7156 0.3034 -1.5570 2.4603 -0.7716 -0.7347 4.0189 -1.5207 -3.5033 -4.0810 4.9724 -4.6375 -2.3922 1.7317 -2.3205 0.1054 0.0000 -0.0000 0.0000 -87.4191 0.9182 24.6061 15.3565 -24.6403 -3.3732 -0.0000 0.0000 -17.1005 18.6454 14.0354 4.6782 -7.1250 0.0000 -0.0000 -8.1471 44.6044 0.0801 0.0000 -0.0000 0.0000 90.3899 2.3245 19.9121 -14.1465 22.9437 -2.8850 0.0000 0.0000 1.9265 -19.6234 -7.1344 2.5355 7.1250 -0.0000 -0.0000 6.1066 -37.4864 1.1344
